<?xml version="1.0" encoding="utf-8" ?>
<svg xmlns="http://www.w3.org/2000/svg" xmlns:xlink="http://www.w3.org/1999/xlink" width="1024" height="1024">
	<path fill="#226FBE" d="M66.4704 512.302C68.2106 520.564 69.3824 529.017 71.3938 537.21C75.7257 554.856 82.8929 571.065 91.2516 587.12C95.5143 593.415 99.3513 600.046 104.013 606.059C126.009 634.437 157.348 656.943 193.067 663.821C198.887 664.942 209.117 667.132 214.782 665.108C214.991 665.336 215.214 665.552 215.408 665.792C216.129 666.684 216.561 667.379 216.4 668.533C215.931 668.886 215.884 668.967 215.24 669.186C213.284 669.85 210.179 669.511 208.092 669.469C194.536 669.196 181.852 666.542 169.333 661.217C139.275 648.433 118.293 631.172 99.2175 604.924C94.6558 598.647 89.681 591.919 86.7388 584.719C76.9837 565.464 66.9111 533.585 66.4704 512.302Z"/>
	<defs>
		<linearGradient id="gradient_0" gradientUnits="userSpaceOnUse" x1="299.75433" y1="663.21881" x2="279.70291" y2="625.82373">
			<stop offset="0" stop-color="#1E63A3"/>
			<stop offset="1" stop-color="#3587CC"/>
		</linearGradient>
	</defs>
	<path fill="url(#gradient_0)" d="M359.989 580.914C361.411 581.746 364.191 582.908 364.864 584.413C359.607 612.206 341.962 636.751 318.733 652.675C299.92 665.572 279.043 676.603 257.284 683.628C249.082 686.277 240.58 688.165 232.233 690.322C225.462 692.072 216.623 695.357 209.659 694.047C208.699 693.219 208.721 693.278 208.57 692.021C209.161 690.856 209.735 689.888 210.538 688.844C211.017 688.919 211.499 688.978 211.982 689.015C218.697 689.526 227.229 686.789 233.802 685.068C266.482 676.512 299.805 662.907 325.872 640.985C345.824 624.205 357.695 607.135 359.989 580.914Z"/>
	<path fill="#FDFDFD" d="M783.126 412.018L813.943 411.966C812.969 452.421 813.439 493.021 813.578 533.49L782.936 533.555C782.731 493.076 782.46 452.489 783.126 412.018Z"/>
	<path fill="#FDFDFD" d="M436.235 412.243Q465.52 411.941 494.807 412.018C490.81 417.501 486.752 432.012 483.968 438.969C470.914 439.018 457.787 438.599 444.75 438.815C438.691 438.915 432.515 440.605 428.296 445.198C423.414 450.511 422.83 457.312 422.983 464.157Q452.4 463.922 481.817 464.029C479.032 471.354 476.377 478.705 473.481 485.992C469.799 485.757 466.065 485.81 462.375 485.752Q442.481 485.591 422.587 485.699C423.188 501.221 422.602 516.905 422.908 532.455Q407.211 532.577 391.514 532.52L391.679 483.717C391.72 472.738 390.764 460.506 393.038 449.734C394.75 441.629 398.267 433.921 403.788 427.697C411.835 418.626 424.146 412.894 436.235 412.243Z"/>
	<path fill="#085297" d="M209.858 218.548L217.732 248.726C219.566 255.748 221.041 263.448 224.183 270.018L224.624 269.467C227.713 265.565 230.063 261.19 232.995 257.184C240.32 247.176 252.024 238.234 263.959 234.682C262.513 247.217 257.495 264.78 259.37 276.893C260.299 282.895 262.666 288.475 263.901 294.373C270.452 297.749 276.84 300.55 282.241 305.704C291.145 314.201 292.652 320.734 299.316 328.885C309.842 341.763 328.545 341.085 342.876 336.492C345.261 335.728 347.699 334.942 349.994 333.937C354.785 338.11 356.922 342.042 357.406 348.545C358.309 360.703 352.547 371.916 344.689 380.811C333.558 393.411 317.341 400.812 301.618 405.851C295.839 407.703 289.507 409.218 284.085 411.913L283.933 411.987C276.959 422.306 273.792 433.837 276.124 446.175Q276.36 447.408 276.669 448.625Q276.979 449.842 277.362 451.038Q277.745 452.233 278.199 453.404Q278.653 454.574 279.177 455.715Q279.701 456.856 280.293 457.963Q280.885 459.071 281.543 460.14Q282.201 461.209 282.923 462.237Q283.644 463.265 284.426 464.247C290.478 471.751 298.836 478.06 306.132 484.316C328.223 503.256 349.879 522.476 361.123 550.073C365.579 561.009 368.11 571.747 365.093 583.499L364.864 584.413C364.191 582.908 361.411 581.746 359.989 580.914C359.624 547.112 335.825 521.487 311.058 501.245C296.193 489.096 278.453 476.493 270.81 458.172C265.311 444.989 267.668 431.336 272.92 418.532C270.305 421.752 267.79 425 265.383 428.378C261.264 427.85 258.655 429.434 255.432 431.916C252.406 434.246 249.627 437.171 247.159 440.073C245.186 442.392 237.341 454.548 235.294 455.34Q235.791 453.263 236.549 451.266Q237.308 449.269 238.315 447.385C242 437.757 250.135 429.028 257.84 422.426C259.936 420.013 263.228 417.835 265.815 415.958C284.187 402.625 299.949 401.807 318.737 392.575C325.793 389.108 331.512 384.834 337.294 379.536C324.376 385.115 308.36 388.871 294.244 387.09C306.75 385.878 320.897 383.057 332.107 377.244C340.129 373.083 347.625 367.253 350.437 358.333C341.15 356.515 336.948 353.513 330.926 346.387C315.79 346.927 302.241 345.491 292.437 332.561C288.205 326.981 284.502 321.221 279.463 316.279C269.157 306.174 256.599 301.208 243.272 296.362C239.526 295 235.749 293.265 231.885 292.309L231.565 292.816C231.375 292.852 231.184 292.885 230.995 292.925C227.784 293.603 224.534 296.984 221.388 296.086L219.437 293.782C214.823 276.265 210.196 258.836 207.836 240.837Q207.366 234.84 206.623 228.87C190.615 243.871 179.012 265.783 172.451 286.626C171.518 289.59 166.234 311.894 164.073 312.051C129.081 331.439 101.789 366.365 84.9428 401.995C81.9872 408.247 79.5432 414.607 77.1955 421.104C75.965 424.509 74.9457 428.47 73.2787 431.658C76.2492 415.992 89.671 385.881 97.5247 371.743C101.281 364.982 105.738 358.683 109.841 352.14C113.513 346.284 116.763 340.32 121.183 334.957C129.097 325.353 139.824 316.296 150.158 309.288C153.784 306.828 157.646 304.813 161.418 302.599C163.086 293.166 166.149 284.385 169.67 275.509C179.027 251.917 190 234.854 209.858 218.548Z"/>
	<path fill="#226FBE" d="M229.35 279.82C232.176 272.003 235.567 265.04 241.9 259.465C243.851 257.748 248.157 254.274 250.747 254.454L250.618 256.282C243.804 265.693 238.654 275.089 233.707 285.56C232.67 285.926 232.758 285.821 231.775 285.563C230.348 283.993 229.95 281.813 229.35 279.82Z"/>
	<path fill="#FDFDFD" d="M257.71 248.862C251.092 266.344 249.889 274.563 254.855 292.762C248.25 290.122 240.818 286.428 233.707 285.56C238.654 275.089 243.804 265.693 250.618 256.282C252.888 253.719 255.089 251.078 257.71 248.862Z"/>
	<path fill="#FDFDFD" d="M875.646 412.245C894.731 411.869 913.862 412.146 932.952 412.159C931.614 420.828 930.955 430.429 931.009 439.194L906.607 439.307C893.932 439.373 878.491 437.841 867.806 446.102C862.457 450.238 860.109 455.926 859.39 462.46C874.636 462.169 889.958 462.357 905.211 462.344C912.661 462.337 920.476 462.824 927.877 462.046C924.913 470.448 920.802 478.473 918.202 486.994C911.414 486.999 861.458 486.257 859.539 487.392C859.271 488.257 859.151 488.805 859.315 489.72C860.131 494.284 865.896 499.947 869.395 502.552C873.139 504.946 876.941 506.617 881.304 507.45C888.178 508.764 895.834 508.154 902.83 508.178C913.444 508.215 924.077 508.366 934.689 508.202C932.322 516.156 931.385 525.271 930.572 533.527Q914.374 533.415 898.176 533.523C878.465 533.582 859.656 535.008 843.982 520.424C834.979 512.047 830.715 501.14 830.239 489.003C829.997 482.84 830.183 476.643 830.214 470.477C830.238 465.715 829.919 460.78 830.324 456.04C831.179 446.055 836.061 434.904 842.906 427.58C851.239 418.664 863.395 412.729 875.646 412.245Z"/>
	<path fill="#FDFDFD" d="M502.272 411.926C512.354 412.158 522.469 411.973 532.554 411.952L532.335 454.128C532.292 463.056 531.477 472.824 533.221 481.597C534.474 487.902 536.992 494.285 541.651 498.858C548.888 505.961 558.88 506.924 568.494 506.663C576.225 506.453 583.837 504.182 589.203 498.292C593.05 494.069 595.322 488.507 596.379 482.943C598.22 473.257 597.045 462.461 597.05 452.599C597.057 439.158 597.563 425.672 597.054 412.242C607.307 411.582 617.722 412.454 628.011 411.958C627.859 421.339 627.966 430.739 627.947 440.122L628.012 466.417C628.049 485.757 627.522 503.453 613.164 518.263C600.3 531.532 581.925 534.634 564.216 534.787C546.736 534.937 529.767 531.603 516.973 518.858C499.289 501.243 502.171 473.267 502.308 450.403Q502.393 431.164 502.272 411.926Z"/>
	<path fill="#FDFDFD" d="M683.805 412.247C691.99 411.856 700.252 412.358 708.452 412.386L758.653 412.447C755.048 421.028 752.379 429.963 748.591 438.514C734.591 439.278 720.48 439.109 706.463 438.986C699.809 438.927 692.253 438.139 685.691 439.121C683.113 439.507 680.404 440.396 678.49 442.247C676.554 444.119 675.628 446.97 675.562 449.615C675.492 452.419 677.12 455.397 679.066 457.355C684.45 462.773 712.405 460.365 720.445 460.332C732.071 460.283 742.864 463.233 751.291 471.728Q751.886 472.336 752.45 472.972Q753.014 473.608 753.546 474.271Q754.079 474.934 754.578 475.622Q755.077 476.31 755.542 477.021Q756.007 477.733 756.437 478.467Q756.866 479.201 757.26 479.954Q757.653 480.708 758.009 481.48Q758.365 482.252 758.682 483.041Q759 483.829 759.279 484.633Q759.557 485.436 759.797 486.252Q760.036 487.067 760.235 487.894Q760.433 488.721 760.592 489.556Q760.75 490.391 760.867 491.233Q760.984 492.075 761.06 492.922Q761.136 493.769 761.17 494.618Q761.204 495.468 761.197 496.318C761.157 506.635 757.133 515.926 749.778 523.129C737.751 534.905 725.622 534.648 709.75 534.502C684.718 534.423 659.636 534.846 634.611 534.364C638.307 525.905 641.707 516.42 646.535 508.584C656.242 509.421 666.424 508.879 676.176 508.873C689.213 508.865 702.28 509.216 715.311 509.071C720.184 509.017 724.544 508.564 728.007 504.761C730.149 502.408 730.773 499.365 730.63 496.256C730.439 492.076 728.354 489.158 724.485 487.567C714.392 483.417 688.874 488.428 675.866 485.8Q674.562 485.527 673.28 485.167Q671.998 484.806 670.743 484.359Q669.488 483.911 668.267 483.38Q667.046 482.848 665.863 482.234Q664.681 481.621 663.543 480.928Q662.406 480.235 661.318 479.466Q660.23 478.698 659.197 477.856Q658.164 477.015 657.191 476.106C649.943 469.396 645.349 460.5 645.116 450.57C644.882 440.618 648.62 431.696 655.552 424.577Q656.236 423.862 656.954 423.183Q657.673 422.503 658.424 421.859Q659.175 421.216 659.958 420.61Q660.74 420.005 661.551 419.439Q662.362 418.873 663.2 418.347Q664.038 417.822 664.901 417.339Q665.764 416.856 666.65 416.416Q667.536 415.976 668.443 415.58Q669.349 415.184 670.274 414.834Q671.199 414.484 672.14 414.18Q673.082 413.875 674.037 413.618Q674.992 413.361 675.958 413.151Q676.925 412.941 677.901 412.78Q678.877 412.618 679.859 412.505Q680.842 412.392 681.829 412.327Q682.816 412.263 683.805 412.247Z"/>
	<path fill="#FDFDFD" d="M265.383 428.378C267.79 425 270.305 421.752 272.92 418.532C267.668 431.336 265.311 444.989 270.81 458.172C278.453 476.493 296.193 489.096 311.058 501.245C335.825 521.487 359.624 547.112 359.989 580.914C357.695 607.135 345.824 624.205 325.872 640.985C299.805 662.907 266.482 676.512 233.802 685.068C227.229 686.789 218.697 689.526 211.982 689.015C211.499 688.978 211.017 688.919 210.538 688.844C213.582 685.556 218.086 683.145 221.922 680.857C222.528 680.586 222.542 680.592 223.225 680.211C230.068 676.4 236.169 670.922 242.023 665.757C264.205 646.185 284.119 622.482 292.308 593.476C295.979 579.394 295.333 561.427 289.683 547.93C286.883 536.464 280.446 524.438 273.556 514.941C262.649 499.907 255.06 493.299 252.782 473.774C252.898 465.601 253.857 458.014 255.628 450.046C257.303 446.684 258.413 442.647 259.743 439.116C261.472 435.453 263.431 431.924 265.383 428.378Z"/>
	<path fill="#1886EE" d="M164.073 312.051C166.234 311.894 171.518 289.59 172.451 286.626C179.012 265.783 190.615 243.871 206.623 228.87Q207.366 234.84 207.836 240.837C210.196 258.836 214.823 276.265 219.437 293.782L221.388 296.086C224.534 296.984 227.784 293.603 230.995 292.925C231.184 292.885 231.375 292.852 231.565 292.816L231.885 292.309C235.749 293.265 239.526 295 243.272 296.362C256.599 301.208 269.157 306.174 279.463 316.279C284.502 321.221 288.205 326.981 292.437 332.561C302.241 345.491 315.79 346.927 330.926 346.387C336.948 353.513 341.15 356.515 350.437 358.333C347.625 367.253 340.129 373.083 332.107 377.244C320.897 383.057 306.75 385.878 294.244 387.09C308.36 388.871 324.376 385.115 337.294 379.536C331.512 384.834 325.793 389.108 318.737 392.575C299.949 401.807 284.187 402.625 265.815 415.958C263.228 417.835 259.936 420.013 257.84 422.426C250.135 429.028 242 437.757 238.315 447.385Q237.308 449.269 236.549 451.266Q235.791 453.263 235.294 455.34C237.341 454.548 245.186 442.392 247.159 440.073C249.627 437.171 252.406 434.246 255.432 431.916C258.655 429.434 261.264 427.85 265.383 428.378C263.431 431.924 261.472 435.453 259.743 439.116C258.413 442.647 257.303 446.684 255.628 450.046C253.857 458.014 252.898 465.601 252.782 473.774C255.06 493.299 262.649 499.907 273.556 514.941C280.446 524.438 286.883 536.464 289.683 547.93C295.333 561.427 295.979 579.394 292.308 593.476C284.119 622.482 264.205 646.185 242.023 665.757C236.169 670.922 230.068 676.4 223.225 680.211C222.542 680.592 222.528 680.586 221.922 680.857C224.467 678.014 228.072 675.633 231.063 673.241C230.038 670.599 228.903 668.002 227.789 665.397C225.248 662.477 223.282 658.322 221.253 654.99C221.34 656.414 221.759 657.434 220.754 658.549C219.162 660.314 217.312 661.861 214.846 661.964C214.686 661.97 214.525 661.949 214.365 661.942C213.458 660.4 213.434 659.716 211.676 659.187L214.249 664.6L214.782 665.108C209.117 667.132 198.887 664.942 193.067 663.821C157.348 656.943 126.009 634.437 104.013 606.059C99.3513 600.046 95.5143 593.415 91.2516 587.12C82.8929 571.065 75.7257 554.856 71.3938 537.21C69.3824 529.017 68.2106 520.564 66.4704 512.302C64.2013 485.539 65.3092 457.471 73.2787 431.658C74.9457 428.47 75.965 424.509 77.1955 421.104C79.5432 414.607 81.9872 408.247 84.9428 401.995C101.789 366.365 129.081 331.439 164.073 312.051ZM164.073 312.051C129.081 331.439 101.789 366.365 84.9428 401.995C81.9872 408.247 79.5432 414.607 77.1955 421.104C75.965 424.509 74.9457 428.47 73.2787 431.658C65.3092 457.471 64.2013 485.539 66.4704 512.302C68.2106 520.564 69.3824 529.017 71.3938 537.21C75.7257 554.856 82.8929 571.065 91.2516 587.12C95.5143 593.415 99.3513 600.046 104.013 606.059C126.009 634.437 157.348 656.943 193.067 663.821C198.887 664.942 209.117 667.132 214.782 665.108L214.249 664.6L211.676 659.187C213.434 659.716 213.458 660.4 214.365 661.942C214.525 661.949 214.686 661.97 214.846 661.964C217.312 661.861 219.162 660.314 220.754 658.549C221.759 657.434 221.34 656.414 221.253 654.99C223.282 658.322 225.248 662.477 227.789 665.397L228.36 664.772C225.447 659.5 214.381 643.17 213.813 638.333C215.128 638.092 217.576 639.182 218.931 639.582Q221.277 640.292 223.683 640.76Q226.089 641.228 228.529 641.449Q230.97 641.671 233.421 641.645Q235.872 641.618 238.307 641.343C246.092 640.428 254.523 636.344 259.42 630.079C260.247 629.03 261.103 627.965 261.759 626.797C263.727 623.292 264.876 616.848 263.756 612.961C267.122 600.429 266.609 588.065 263.946 575.45C260.052 557 251.134 540.341 235.741 529.061C228.792 523.968 221.185 519.895 213.813 515.466C206.595 511.13 199.742 506.267 192.705 501.652C193.975 503.713 195.044 505.878 196.147 508.032C202.632 520.721 209.778 533.868 213.682 547.659C215.828 553.282 217.228 559.105 218.638 564.944C214.674 559.925 210.542 555.422 205.787 551.146C205.753 551.127 205.716 551.111 205.684 551.089C198.958 546.473 192.437 541.536 185.765 536.839C158.808 517.86 134.192 498.253 122.204 466.189C118.201 455.482 116.592 444.571 113.722 433.595C112.151 458.653 118.995 479.038 131.449 500.472C116.281 486.474 104.965 470.752 101.932 449.8C96.4216 411.736 117.292 372.482 140.096 343.339C147.378 334.033 156.068 325.464 162.964 315.949C164 314.52 164.351 313.795 164.073 312.051Z"/>
	<path fill="#226FBE" d="M219.437 293.782L221.388 296.086C224.534 296.984 227.784 293.603 230.995 292.925C231.184 292.885 231.375 292.852 231.565 292.816C232.603 296.661 233.902 300.502 234.756 304.383C234.335 303.812 233.891 303.135 233.316 302.694C231.036 300.942 225.178 299.97 222.421 300.455C222.281 300.479 222.142 300.51 222.003 300.537L221.139 299.902L219.437 293.782Z"/>
	<path fill="#0D66B7" d="M235.294 455.34C237.341 454.548 245.186 442.392 247.159 440.073C249.627 437.171 252.406 434.246 255.432 431.916C258.655 429.434 261.264 427.85 265.383 428.378C263.431 431.924 261.472 435.453 259.743 439.116C259.556 436.111 261.201 434.402 262.323 431.693C260.375 431.833 258.762 432.856 257.474 434.288C257.319 434.992 257.196 435.666 257.089 436.381C256.927 436.474 256.764 436.564 256.603 436.658C251.293 439.771 245.756 446.789 242.534 451.959C240.35 455.464 236.097 468.043 232.347 469.016C232.698 464.538 233.54 459.487 235.294 455.34Z"/>
	<path fill="#0D66B7" d="M207.102 536.679C203.483 532.129 202.796 526.005 201.09 520.662C200.118 517.618 198.171 514.126 196.36 511.479C195.829 510.703 195.677 510.47 195.364 509.528L196.147 508.032C202.632 520.721 209.778 533.868 213.682 547.659C215.828 553.282 217.228 559.105 218.638 564.944C214.674 559.925 210.542 555.422 205.787 551.146L206.197 550.912C208.032 551.194 208.741 552.611 210.195 553.699L210.203 548.374C209.609 549.321 209.355 550.347 209.016 551.405L208.423 551.148C207.621 549.82 207.081 548.544 206.583 547.077C205.167 542.902 203.994 538.513 202.193 534.493C199.902 529.379 196.701 524.57 195.302 519.092C199.721 525.364 205.759 533.372 207.432 540.849C207.683 541.968 207.659 542.543 208.571 543.319C208.754 542.085 208.544 541.366 208.136 540.224C207.81 539.309 207.492 538.436 207.278 537.487L207.102 536.679Z"/>
	<path fill="#226FBE" d="M148.294 445.043C148.522 444.986 148.753 444.937 148.979 444.871C155.374 443.001 169.083 421.861 175.618 425.911C177.107 426.833 177.632 428.527 177.826 430.166C178.37 434.753 177.137 440.11 176.653 444.711C175.6 454.733 179.34 465.882 183.433 474.88C185.164 478.686 186.932 482.827 189.345 486.244C190.555 487.957 193.094 489.309 193.704 491.241C193.104 491.26 192.559 491.257 191.958 491.208Q193.089 493.568 194.274 495.902C181.455 489.72 176.109 460.848 175.534 447.968C175.348 443.798 176.438 430.908 175.261 428.481C168.438 425.04 156.171 446.973 149.509 448.848C148.123 448.582 147.462 448.407 146.322 447.497C146.633 443.324 145.928 436.455 147.542 432.745C147.672 436.85 147.716 440.971 148.294 445.043Z"/>
	<path fill="#0D66B7" d="M153.594 435.9C160.071 433.134 164.394 425.934 171.02 423.01C173.092 422.095 175.749 421.49 177.912 422.376C178.165 422.479 178.388 422.668 178.656 422.722C179.381 422.869 180.774 422.65 181.568 422.639C176.361 451.7 184.465 469.204 198.961 493.485C198.715 493.562 198.472 493.65 198.223 493.717C197.154 494.006 196.424 493.983 195.338 493.941L194.704 494.415L195.571 495.56L194.274 495.902Q193.089 493.568 191.958 491.208C192.559 491.257 193.104 491.26 193.704 491.241C193.094 489.309 190.555 487.957 189.345 486.244C186.932 482.827 185.164 478.686 183.433 474.88C179.34 465.882 175.6 454.733 176.653 444.711C177.137 440.11 178.37 434.753 177.826 430.166C177.632 428.527 177.107 426.833 175.618 425.911C169.083 421.861 155.374 443.001 148.979 444.871C148.753 444.937 148.522 444.986 148.294 445.043C149.848 442.088 151.366 438.373 153.594 435.9Z"/>
	<path fill="#0D66B7" d="M292.308 593.476L291.037 591.101L290.916 591.302C289.081 586.01 289.892 579.603 289.724 574.056C289.509 566.976 288.122 560.381 285.58 553.765C282.15 544.836 277.813 535.693 272.556 527.686C261.88 511.426 248.849 500.759 248.418 479.717C248.311 474.477 249.292 470.142 250.834 465.168C251.477 463.093 252.506 460.698 252.576 458.522Q252.609 457.29 252.824 456.077Q253.04 454.863 253.433 453.695C253.953 452.12 254.082 450.811 255.628 450.046C253.857 458.014 252.898 465.601 252.782 473.774C255.06 493.299 262.649 499.907 273.556 514.941C280.446 524.438 286.883 536.464 289.683 547.93C295.333 561.427 295.979 579.394 292.308 593.476Z"/>
	<path fill="#085297" d="M289.683 547.93C289.337 547.861 288.934 547.57 288.622 547.397C286.244 541.445 283.111 533.996 279.557 528.647C278.582 527.18 278.01 525.582 277.077 524.153C276.304 522.968 275.932 522.977 274.647 522.726C276.302 526.654 281.757 532.022 281.405 536.159C278.973 533.506 274.155 524.924 271.882 521.479C267.604 514.996 262.884 508.833 258.498 502.431C253.294 494.836 249.805 487.266 251.562 477.874L251.725 479.996C252.498 478.183 252.349 475.759 252.782 473.774C255.06 493.299 262.649 499.907 273.556 514.941C280.446 524.438 286.883 536.464 289.683 547.93Z"/>
	<path fill="#FDFDFD" d="M195.583 307.664C195.538 308.526 195.434 309.32 195.302 310.17L194.882 310.128C189.86 300.226 190.971 284.964 193.109 274.469C194.625 267.03 200.963 244.38 207.133 240.293L207.836 240.837C210.196 258.836 214.823 276.265 219.437 293.782L221.139 299.902C219.641 299.417 218.401 297.563 217.375 296.378C217.155 296.404 216.935 296.432 216.715 296.456C215.497 296.587 214.11 296.806 212.91 296.477C209.756 295.615 202.927 289.731 200.026 293.244C199.3 294.125 196.897 304.079 196.179 306.344C195.89 307.254 196.058 306.872 195.583 307.664Z"/>
	<path fill="#085297" d="M202.583 278.474L209.489 287.833C206.049 287.278 202.621 286.588 199.187 285.984C200.297 283.474 201.358 280.929 202.583 278.474Z"/>
	<path fill="#0D66B7" d="M199.187 285.984C202.621 286.588 206.049 287.278 209.489 287.833C211.012 289.495 212.513 291.16 213.963 292.886C213.684 292.862 213.404 292.844 213.126 292.814C210.11 292.494 201.913 287.558 199.534 289.792C198.593 290.675 198.358 291.841 197.886 292.997C197.492 293.965 197.696 293.614 196.853 294.338C197.197 291.367 198.041 288.724 199.187 285.984Z"/>
	<path fill="#226FBE" d="M196.853 294.338C197.696 293.614 197.492 293.965 197.886 292.997C198.358 291.841 198.593 290.675 199.534 289.792C201.913 287.558 210.11 292.494 213.126 292.814C213.404 292.844 213.684 292.862 213.963 292.886C215.147 294.019 216.295 295.144 217.375 296.378C217.155 296.404 216.935 296.432 216.715 296.456C215.497 296.587 214.11 296.806 212.91 296.477C209.756 295.615 202.927 289.731 200.026 293.244C199.3 294.125 196.897 304.079 196.179 306.344C195.89 307.254 196.058 306.872 195.583 307.664C195.543 303.22 195.619 298.636 196.853 294.338Z"/>
	<path fill="#FDFDFD" d="M231.565 292.816L231.885 292.309C235.749 293.265 239.526 295 243.272 296.362C256.599 301.208 269.157 306.174 279.463 316.279C284.502 321.221 288.205 326.981 292.437 332.561C302.241 345.491 315.79 346.927 330.926 346.387C336.948 353.513 341.15 356.515 350.437 358.333C347.625 367.253 340.129 373.083 332.107 377.244C320.897 383.057 306.75 385.878 294.244 387.09C308.36 388.871 324.376 385.115 337.294 379.536C331.512 384.834 325.793 389.108 318.737 392.575C299.949 401.807 284.187 402.625 265.815 415.958C263.228 417.835 259.936 420.013 257.84 422.426C250.135 429.028 242 437.757 238.315 447.385Q237.308 449.269 236.549 451.266Q235.791 453.263 235.294 455.34C233.54 459.487 232.698 464.538 232.347 469.016C231.406 472.629 231.79 476.884 231.908 480.595Q228.928 474.644 226.282 468.537L225.468 469.052C223.864 466.347 221.552 458.113 218.289 457.629C216.972 457.434 215.83 457.902 214.851 458.758C209.941 463.054 210.009 472.241 204.527 475.709L203.394 476.588L202.814 476.19C202.99 475.363 203.157 474.535 203.358 473.714C202.375 475.005 201.999 475.637 201.718 477.218C201.56 478.103 201.203 478.878 200.859 479.705L200.212 480.092L199.795 479.629C198.787 484.076 199.444 488.945 198.961 493.485C184.465 469.204 176.361 451.7 181.568 422.639C180.774 422.65 179.381 422.869 178.656 422.722C178.388 422.668 178.165 422.479 177.912 422.376C175.749 421.49 173.092 422.095 171.02 423.01C164.394 425.934 160.071 433.134 153.594 435.9C151.366 438.373 149.848 442.088 148.294 445.043C147.716 440.971 147.672 436.85 147.542 432.745C147.929 431.031 148.002 429.102 148.234 427.345C150.545 409.886 157.404 397.71 171.308 387.041C165.205 385.582 153.922 384.353 148.804 381.378C147.241 380.469 146.896 379.442 146.453 377.82C144.067 377.083 140.589 377.203 138.034 376.978C146.881 373.186 156.542 371.214 165.558 367.719C191.838 357.533 222.698 338.03 236.759 313.091Q235.876 308.71 234.756 304.383C233.902 300.502 232.603 296.661 231.565 292.816Z"/>
	<path fill="#085297" d="M153.594 435.9C159.699 424.651 173.356 416.679 184.505 411.395C183.361 415.115 182.436 418.846 181.568 422.639C180.774 422.65 179.381 422.869 178.656 422.722C178.388 422.668 178.165 422.479 177.912 422.376C175.749 421.49 173.092 422.095 171.02 423.01C164.394 425.934 160.071 433.134 153.594 435.9Z"/>
	<path fill="#085297" d="M146.453 377.82C160.194 378.721 174.04 379.02 187.723 377.072C182.348 380.445 176.483 383.416 171.308 387.041C165.205 385.582 153.922 384.353 148.804 381.378C147.241 380.469 146.896 379.442 146.453 377.82Z"/>
	<defs>
		<linearGradient id="gradient_1" gradientUnits="userSpaceOnUse" x1="215.46532" y1="459.35825" x2="212.15227" y2="447.07761">
			<stop offset="0" stop-color="#0B69C5"/>
			<stop offset="1" stop-color="#004B97"/>
		</linearGradient>
	</defs>
	<path fill="url(#gradient_1)" d="M205.079 462.26C209.031 455.35 213.493 448.538 218.704 442.496C220.623 451.447 223.06 459.949 226.282 468.537L225.468 469.052C223.864 466.347 221.552 458.113 218.289 457.629C216.972 457.434 215.83 457.902 214.851 458.758C209.941 463.054 210.009 472.241 204.527 475.709L203.394 476.588L202.814 476.19C202.99 475.363 203.157 474.535 203.358 473.714C202.375 475.005 201.999 475.637 201.718 477.218C201.56 478.103 201.203 478.878 200.859 479.705L200.212 480.092L199.795 479.629C200.164 473.548 202.57 467.728 205.079 462.26Z"/>
	<path fill="#0D66B7" d="M205.079 462.26L206.024 462.238C207.013 462.204 207.722 462.006 208.64 461.621L209.319 461.922C209.203 462.08 209.081 462.234 208.97 462.395C206.531 465.94 205.375 471.513 204.527 475.709L203.394 476.588L202.814 476.19C202.99 475.363 203.157 474.535 203.358 473.714C202.375 475.005 201.999 475.637 201.718 477.218C201.56 478.103 201.203 478.878 200.859 479.705L200.212 480.092L199.795 479.629C200.164 473.548 202.57 467.728 205.079 462.26Z"/>
	<path fill="#085297" d="M261.906 333.204C264.606 333.022 267.478 332.848 270.161 333.312C278.985 334.837 283.984 342.717 288.533 349.588C282.931 351.092 277.786 351.54 272.046 350.514C261.648 347.495 253.995 340.306 244.464 335.679C250.272 334.338 255.981 333.718 261.906 333.204Z"/>
	<path fill="#FDFDFD" d="M262.396 335.7C266.237 335.589 270.294 336.364 273.425 338.773C274.245 339.404 274.401 339.497 274.556 340.541C274.453 340.664 274.367 340.803 274.247 340.909C272.48 342.478 268.33 342.074 266.06 342.081C261.647 341.075 256.889 338.888 253.097 336.442L262.396 335.7Z"/>
	<path fill="#FDFDFD" d="M164.073 312.051C164.351 313.795 164 314.52 162.964 315.949C156.068 325.464 147.378 334.033 140.096 343.339C117.292 372.482 96.4216 411.736 101.932 449.8C104.965 470.752 116.281 486.474 131.449 500.472C118.995 479.038 112.151 458.653 113.722 433.595C116.592 444.571 118.201 455.482 122.204 466.189C134.192 498.253 158.808 517.86 185.765 536.839C192.437 541.536 198.958 546.473 205.684 551.089C205.716 551.111 205.753 551.127 205.787 551.146C210.542 555.422 214.674 559.925 218.638 564.944C217.228 559.105 215.828 553.282 213.682 547.659C209.778 533.868 202.632 520.721 196.147 508.032C195.044 505.878 193.975 503.713 192.705 501.652C199.742 506.267 206.595 511.13 213.813 515.466C221.185 519.895 228.792 523.968 235.741 529.061C251.134 540.341 260.052 557 263.946 575.45C266.609 588.065 267.122 600.429 263.756 612.961C264.876 616.848 263.727 623.292 261.759 626.797C261.103 627.965 260.247 629.03 259.42 630.079C254.523 636.344 246.092 640.428 238.307 641.343Q235.872 641.618 233.421 641.645Q230.97 641.671 228.529 641.449Q226.089 641.228 223.683 640.76Q221.277 640.292 218.931 639.582C217.576 639.182 215.128 638.092 213.813 638.333C214.381 643.17 225.447 659.5 228.36 664.772L227.789 665.397C225.248 662.477 223.282 658.322 221.253 654.99C221.34 656.414 221.759 657.434 220.754 658.549C219.162 660.314 217.312 661.861 214.846 661.964C214.686 661.97 214.525 661.949 214.365 661.942C213.458 660.4 213.434 659.716 211.676 659.187L214.249 664.6L214.782 665.108C209.117 667.132 198.887 664.942 193.067 663.821C157.348 656.943 126.009 634.437 104.013 606.059C99.3513 600.046 95.5143 593.415 91.2516 587.12C82.8929 571.065 75.7257 554.856 71.3938 537.21C69.3824 529.017 68.2106 520.564 66.4704 512.302C64.2013 485.539 65.3092 457.471 73.2787 431.658C74.9457 428.47 75.965 424.509 77.1955 421.104C79.5432 414.607 81.9872 408.247 84.9428 401.995C101.789 366.365 129.081 331.439 164.073 312.051ZM214.249 664.6L211.676 659.187C213.434 659.716 213.458 660.4 214.365 661.942C214.525 661.949 214.686 661.97 214.846 661.964C217.312 661.861 219.162 660.314 220.754 658.549C221.759 657.434 221.34 656.414 221.253 654.99C223.282 658.322 225.248 662.477 227.789 665.397L228.36 664.772C225.447 659.5 214.381 643.17 213.813 638.333C215.128 638.092 217.576 639.182 218.931 639.582Q221.277 640.292 223.683 640.76Q226.089 641.228 228.529 641.449Q230.97 641.671 233.421 641.645Q235.872 641.618 238.307 641.343C246.092 640.428 254.523 636.344 259.42 630.079C255.447 632.474 251.539 634.737 247.161 636.316C239.624 635.87 232.902 637.691 225.334 635.42C222.783 634.945 220.525 634.398 218.11 633.39C213.157 632.829 207.565 629.008 203.89 625.778L204.342 625.21C199.173 622.28 193.475 620.175 188.264 617.166C166.361 604.517 147.144 588.844 129.573 570.74C126.917 567.318 123.873 564.216 121.125 560.867C113.851 552.004 107.46 542.073 102.878 531.563C100.744 526.667 98.4649 521.626 96.7543 516.572C95.8319 513.847 95.4119 510.845 94.2634 508.223L94.2672 508.218C94.2222 508.348 94.1604 508.473 94.1321 508.607C93.6242 511.01 95.6143 517.306 96.2605 519.799C103.753 548.701 119.499 579.186 137.695 602.812C157.076 627.977 184.035 653.4 214.249 664.6Z"/>
	<path fill="#085297" d="M204.342 625.21C212.993 628.387 221.107 631.108 230.314 632.206C226.059 633.549 222.307 632.615 218.11 633.39C213.157 632.829 207.565 629.008 203.89 625.778L204.342 625.21Z"/>
	<path fill="#0D66B7" d="M263.756 612.961C264.876 616.848 263.727 623.292 261.759 626.797C261.103 627.965 260.247 629.03 259.42 630.079C255.447 632.474 251.539 634.737 247.161 636.316C239.624 635.87 232.902 637.691 225.334 635.42C222.783 634.945 220.525 634.398 218.11 633.39C222.307 632.615 226.059 633.549 230.314 632.206C240.393 632.75 247.906 631.84 256.448 626.071C259.56 621.494 261.866 618.32 263.756 612.961Z"/>
	<defs>
		<linearGradient id="gradient_2" gradientUnits="userSpaceOnUse" x1="169.95929" y1="569.51227" x2="138.92419" y2="618.24078">
			<stop offset="0" stop-color="#3071B1"/>
			<stop offset="1" stop-color="#49A4FA"/>
		</linearGradient>
	</defs>
	<path fill="url(#gradient_2)" d="M214.249 664.6C184.035 653.4 157.076 627.977 137.695 602.812C119.499 579.186 103.753 548.701 96.2605 519.799C95.6143 517.306 93.6242 511.01 94.1321 508.607C94.1604 508.473 94.2222 508.348 94.2672 508.218L94.2634 508.223C95.4119 510.845 95.8319 513.847 96.7543 516.572C98.4649 521.626 100.744 526.667 102.878 531.563C107.46 542.073 113.851 552.004 121.125 560.867C123.873 564.216 126.917 567.318 129.573 570.74C147.144 588.844 166.361 604.517 188.264 617.166C193.475 620.175 199.173 622.28 204.342 625.21L203.89 625.778C207.565 629.008 213.157 632.829 218.11 633.39C220.525 634.398 222.783 634.945 225.334 635.42C232.902 637.691 239.624 635.87 247.161 636.316C251.539 634.737 255.447 632.474 259.42 630.079C254.523 636.344 246.092 640.428 238.307 641.343Q235.872 641.618 233.421 641.645Q230.97 641.671 228.529 641.449Q226.089 641.228 223.683 640.76Q221.277 640.292 218.931 639.582C217.576 639.182 215.128 638.092 213.813 638.333C214.381 643.17 225.447 659.5 228.36 664.772L227.789 665.397C225.248 662.477 223.282 658.322 221.253 654.99C221.34 656.414 221.759 657.434 220.754 658.549C219.162 660.314 217.312 661.861 214.846 661.964C214.686 661.97 214.525 661.949 214.365 661.942C213.458 660.4 213.434 659.716 211.676 659.187L214.249 664.6ZM211.676 659.187C213.434 659.716 213.458 660.4 214.365 661.942C214.525 661.949 214.686 661.97 214.846 661.964C217.312 661.861 219.162 660.314 220.754 658.549C221.759 657.434 221.34 656.414 221.253 654.99C218.97 649.751 215.783 645.115 212.598 640.399C209.992 640.184 205.227 638.771 202.904 639.408C202.12 641.211 202.852 643.223 203.51 644.962C204.807 648.384 209.067 656.718 211.676 659.187Z"/>
	<defs>
		<linearGradient id="gradient_3" gradientUnits="userSpaceOnUse" x1="215.29964" y1="659.93463" x2="207.76883" y2="639.13544">
			<stop offset="0" stop-color="#4199E7" stop-opacity="0.10196079"/>
			<stop offset="1" stop-color="#479DED" stop-opacity="0.43921569"/>
		</linearGradient>
	</defs>
	<path fill="url(#gradient_3)" d="M211.676 659.187C209.067 656.718 204.807 648.384 203.51 644.962C202.852 643.223 202.12 641.211 202.904 639.408C205.227 638.771 209.992 640.184 212.598 640.399C215.783 645.115 218.97 649.751 221.253 654.99C221.34 656.414 221.759 657.434 220.754 658.549C219.162 660.314 217.312 661.861 214.846 661.964C214.686 661.97 214.525 661.949 214.365 661.942C213.458 660.4 213.434 659.716 211.676 659.187Z"/>
	<path fill="#226FBE" d="M247.161 636.316C242.822 638.261 237.474 638.583 232.762 638.489C207.077 637.978 167.387 612.728 149.791 594.567Q150.01 593.127 150.162 591.679L149.699 591.341L148.934 590.768C141.95 585.635 134.502 578.697 129.404 571.725L129.573 570.74C147.144 588.844 166.361 604.517 188.264 617.166C193.475 620.175 199.173 622.28 204.342 625.21L203.89 625.778C207.565 629.008 213.157 632.829 218.11 633.39C220.525 634.398 222.783 634.945 225.334 635.42C232.902 637.691 239.624 635.87 247.161 636.316Z"/>
</svg>
