<?xml version="1.0" encoding="utf-8" ?>
<svg xmlns="http://www.w3.org/2000/svg" xmlns:xlink="http://www.w3.org/1999/xlink" width="1024" height="1024">
	<path fill="#1978DF" d="M79.2053 572.442C74.4277 563.095 71.4947 552.112 69.2862 541.919Q68.5074 538.323 67.8443 534.703Q67.1812 531.083 66.6345 527.445Q66.0878 523.806 65.6581 520.151Q65.2283 516.496 64.916 512.83Q64.6037 509.164 64.409 505.489Q64.2144 501.814 64.1377 498.135Q64.061 494.456 64.1023 490.777Q64.1436 487.097 64.3028 483.421Q64.462 479.745 64.7391 476.075Q65.0161 472.406 65.4106 468.747Q65.8052 465.089 66.3168 461.445Q66.8285 457.801 67.4567 454.175Q68.0849 450.549 68.829 446.946Q69.5732 443.342 70.4325 439.764Q71.2918 436.186 72.2654 432.637Q73.2389 429.089 74.3258 425.573L75.4918 425.994C60.9069 474.643 62.875 519.393 81.1474 566.628C77.0572 563.765 75.8726 550.642 73.0178 549.878C72.4551 550.608 72.5301 551.356 72.6973 552.243C73.0634 554.184 73.8019 555.658 74.6775 557.37C75.8512 559.665 76.026 562.381 76.8677 564.803C77.4657 566.523 78.5389 568.088 79.0479 569.829C79.3068 570.714 79.3883 571.539 79.2053 572.442Z"/>
	<path fill="#1A6BB8" d="M79.2053 572.442C79.3883 571.539 79.3068 570.714 79.0479 569.829C78.5389 568.088 77.4657 566.523 76.8677 564.803C76.026 562.381 75.8512 559.665 74.6775 557.37C73.8019 555.658 73.0634 554.184 72.6973 552.243C72.5301 551.356 72.4551 550.608 73.0178 549.878C75.8726 550.642 77.0572 563.765 81.1474 566.628C100.211 608.4 129.365 641.789 173.351 658.318Q178.097 660.118 182.985 661.488Q187.873 662.858 192.863 663.787Q197.853 664.717 202.907 665.198Q207.96 665.679 213.036 665.708L212.443 667.001C209.761 667.948 205.886 666.987 203.083 666.631C185.316 664.371 173.431 660.181 157.352 652.476C152.65 650.222 147.313 647.893 143.523 644.304C141.268 642.168 134.611 638.86 131.59 639.265C131.395 639.291 131.209 639.36 131.019 639.408C131.472 640.89 134.51 642.713 135.811 643.743C149.32 654.426 170.487 664.574 187.246 669.201C192.75 670.721 198.436 671.475 203.987 672.771L203.536 673.358C190.905 673.253 168.336 664.09 156.489 657.928C127.763 642.985 103.227 617.344 87.3602 589.307C84.3375 583.965 81.0705 578.293 79.2053 572.442Z"/>
	<defs>
		<linearGradient id="gradient_0" gradientUnits="userSpaceOnUse" x1="299.25815" y1="666.72632" x2="278.21454" y2="618.13745">
			<stop offset="0" stop-color="#236AAA"/>
			<stop offset="1" stop-color="#368AD2"/>
		</linearGradient>
	</defs>
	<path fill="url(#gradient_0)" d="M359.978 580.883C362.036 582.202 363.993 583.48 366.289 584.363C361.639 619.368 342.685 636.567 316.053 656.726C303.554 666.187 276.662 678.912 261.389 683.966C252.625 686.866 243.55 688.923 234.587 691.113C227.668 692.803 219.119 695.391 211.999 694.558C210.793 694.417 209.956 694.2 209.012 693.39C208.593 692.148 208.605 691.87 209.13 690.583C209.39 689.947 209.897 689.247 210.253 688.675C210.913 688.892 211.537 689.043 212.236 689.072C219.802 689.385 229.085 686.375 236.427 684.337C268.46 675.445 300.412 662.448 326.06 640.812C345.891 624.084 357.738 606.994 359.978 580.883Z"/>
	<path fill="#FDFDFD" d="M783.27 412.022L814.27 411.937C813.725 452.531 814.278 493.145 813.966 533.743C803.499 533.595 793.004 533.801 782.537 533.946L782.677 452.688C782.714 439.261 782.067 425.375 783.27 412.022Z"/>
	<path fill="#FDFDFD" d="M433.011 412.154C452.923 410.896 475.128 411.775 495.219 411.996C490.522 420.49 487.466 429.985 484.073 439.067C474.519 439.575 464.856 439.238 455.29 439.137C449.937 439.081 443.865 438.477 438.645 439.655Q437.359 439.932 436.121 440.379Q434.884 440.826 433.717 441.434Q432.551 442.042 431.476 442.801Q430.401 443.56 429.437 444.455C423.78 449.778 423.047 456.772 422.94 464.066C442.561 462.926 462.573 463.522 482.242 463.549C479.862 471.202 476.838 478.558 473.825 485.978L465.75 486.031L422.645 485.957C423.064 490.888 422.839 496.044 422.872 500.998L422.918 532.594Q407.199 532.51 391.48 532.664L391.517 485.259C391.513 474.506 390.719 463.087 392.473 452.464C393.786 444.514 396.282 436.744 401.057 430.171C408.659 419.708 420.437 414.122 433.011 412.154Z"/>
	<path fill="#085298" d="M209.634 218.545C215.676 235.371 218.168 253.152 224.209 270.017C234.617 254.243 245.508 240.709 264.191 234.636C261.136 263.009 254.483 265.694 264.625 294.71C271.904 298.813 278.644 301.519 284.726 307.614C290.736 313.637 293.669 321.303 298.785 327.854C308.431 340.207 325.7 341.133 339.717 337.164C343.334 336.14 346.899 334.877 350.468 333.695C355.521 338.449 357.761 344.392 357.912 351.261C358.186 363.73 351.115 374.704 342.686 383.307C332.033 394.18 317.501 401.149 303.064 405.589C297.348 407.347 288.944 408.673 284.289 412.555C278.187 417.643 275.56 430.027 275.568 437.659C275.58 450.557 280.727 460.656 289.752 469.55C296.976 476.67 304.952 482.972 312.64 489.573C330.973 505.315 349.208 523.29 359.776 545.304C363.854 553.798 366.888 562.257 366.985 571.747C367.022 575.301 367.251 580.969 366.289 584.363C363.993 583.48 362.036 582.202 359.978 580.883C359.679 546.909 335.495 521.211 310.653 500.908C295.967 488.905 278.563 476.471 270.914 458.423C265.315 445.211 267.592 431.598 272.845 418.721C270.168 421.935 267.658 425.205 265.234 428.612C260.766 428.14 258.154 429.886 254.717 432.669C248.993 437.305 244.741 443.183 240.49 449.117C239.316 450.756 237.801 453.657 236.339 454.937C236.056 455.184 235.643 455.221 235.295 455.364Q235.788 453.28 236.546 451.276Q237.304 449.273 238.315 447.385C241.99 437.779 250.113 429.037 257.808 422.457C259.936 420.032 263.206 417.856 265.816 415.962C284.208 402.614 299.927 401.81 318.734 392.573C325.79 389.108 331.507 384.843 337.283 379.542C323.853 385.39 308.618 388.409 293.956 387.138C306.598 385.848 320.758 383.131 332.106 377.243C340.111 373.09 347.65 367.246 350.431 358.331C341.09 356.517 336.936 353.522 330.943 346.385C315.917 346.924 302.605 345.715 292.845 332.973C288.758 327.639 285.213 322.096 280.476 317.279C270.26 306.89 257.554 301.567 244.133 296.584C240.129 295.097 235.997 293.309 231.845 292.307L231.573 292.822C231.382 292.859 231.191 292.893 231.001 292.934C227.803 293.625 224.53 296.966 221.387 296.085L219.437 293.782C214.827 276.28 210.155 258.834 207.84 240.844Q207.346 234.854 206.599 228.89C190.219 244.27 179.163 265.972 172.341 287.187C170.414 293.179 169.077 299.275 167.34 305.308C166.826 307.094 166.039 311.518 164.07 312.055C143.622 323.392 125.968 340.568 111.396 358.669C107.834 363.094 102.898 371.978 99.3062 375.419C89.6335 391.433 81.2965 408.171 75.4918 425.994L74.3258 425.573C78.886 411.302 84.3924 397.921 90.9647 384.483C92.9257 380.474 94.752 376.214 97.1882 372.476C99.4348 367.046 103.247 362.342 106.32 357.368C109.606 352.05 112.511 346.395 116.164 341.32C127.232 325.941 143.646 312.147 160.201 303.036C169.953 271.158 181.44 239.058 209.634 218.545Z"/>
	<path fill="#1978DF" d="M229.386 279.818C233.25 268.797 236.949 263.07 246.676 256.348C244.935 258.686 242.15 260.731 239.965 262.696L240.049 263.39C240.282 263.524 240.508 263.67 240.748 263.793C245.541 266.242 246.132 257.716 250.326 256.585C243.378 266.144 238.95 275.104 233.704 285.569C232.682 285.894 232.744 285.796 231.784 285.538C230.36 283.977 229.975 281.803 229.386 279.818Z"/>
	<path fill="#FDFDFD" d="M257.896 248.725C250.948 265.666 250.108 275.191 254.856 292.761C248.272 290.129 240.798 286.394 233.704 285.569C238.95 275.104 243.378 266.144 250.326 256.585C252.831 253.954 255.073 251.026 257.896 248.725Z"/>
	<path fill="#FDFDFD" d="M928.402 412.244C929.596 412.232 931.349 411.907 932.335 412.557C931.857 421.611 931.568 430.582 931.55 439.65C918.56 439.466 891.411 438.276 880.129 440.743C875.532 441.748 870.994 443.643 867.344 446.653C862.375 450.751 859.952 456.21 859.328 462.504C875.007 462.036 890.806 462.414 906.499 462.395C913.64 462.386 921.204 462.85 928.291 462.019Q922.845 474.418 917.927 487.035L858.786 486.958C860.318 491.877 862.199 495.806 865.989 499.446C875.085 508.184 885.963 508.063 897.766 508.067L916.39 508.038L934.707 508.074C933.527 513.32 931.931 529.318 929.791 532.562C928.555 533.503 927.502 533.796 925.963 533.821C917.609 533.956 909.13 533.471 900.744 533.504C880.408 533.585 859.809 535.514 843.834 520.187C834.329 511.068 830.145 499.687 829.92 486.666C829.558 465.714 827.605 442.987 843.497 426.735C858.781 411.106 876.162 412.267 896.334 412.289Q912.368 412.351 928.402 412.244Z"/>
	<path fill="#FDFDFD" d="M532.115 411.809C533.264 411.934 532.66 420.637 532.649 422.378L532.525 451.632C532.482 466.191 530.33 485.5 540.842 497.146C546.799 503.747 555.145 506.283 563.758 506.583C572.767 506.896 581.603 505.414 588.348 498.879C592.079 495.264 594.703 490.335 595.9 485.293C598.156 475.791 596.958 464.706 596.951 454.954L597.008 411.648C607.201 412.58 618.072 412.09 628.308 411.785C627.055 431.083 628.058 450.968 628.163 470.331C628.815 487.343 626.303 504.781 614.275 517.782C603.178 529.778 587.449 534.389 571.498 534.917C552.689 535.541 532.437 534.162 518.023 520.5C499.376 502.825 501.73 474.746 501.868 451.326Q502.115 431.677 501.603 412.033C511.764 411.715 521.946 412.106 532.115 411.809Z"/>
	<path fill="#FDFDFD" d="M683.432 412.267C708.618 411.596 733.918 412.137 759.116 412.204C756.869 421.492 751.955 430.493 748.558 439.45C739.039 439.433 687.205 438.265 681.867 440.206C678.454 441.447 676.964 444.784 675.554 447.844C675.701 451.286 676.199 454.217 678.823 456.678C680.893 458.619 683.501 459.608 686.265 460.078C690.783 460.847 695.729 460.442 700.308 460.403L723.266 460.232C733.936 460.233 743.878 463.55 751.48 471.315C758.333 478.316 761.505 488.101 761.399 497.765Q761.393 498.659 761.342 499.552Q761.291 500.445 761.196 501.334Q761.101 502.223 760.962 503.106Q760.823 503.989 760.64 504.865Q760.457 505.74 760.23 506.605Q760.004 507.47 759.735 508.323Q759.466 509.175 759.155 510.014Q758.844 510.852 758.491 511.674Q758.139 512.495 757.746 513.299Q757.353 514.102 756.92 514.884Q756.488 515.667 756.017 516.427Q755.546 517.187 755.038 517.923Q754.53 518.659 753.986 519.368Q753.442 520.078 752.863 520.76Q752.284 521.441 751.672 522.093Q751.061 522.745 750.417 523.366C738.297 535.163 724.625 535.135 708.75 535.021L633.81 535.082C637.338 526.209 641.601 516.722 646.266 508.41C665.205 508.775 684.17 508.417 703.113 508.488C706.458 508.501 709.759 509.104 713.104 509.101C718.34 509.097 723.265 509.16 727.132 505.07C729.263 502.815 730.752 499.629 730.595 496.481C730.352 491.601 725.901 488.144 721.47 487.039C717.395 486.023 712.928 486.446 708.76 486.525C697.686 486.736 685.249 488.159 674.429 485.67C667.636 484.107 661.35 480.421 656.345 475.609C649.171 468.711 645.073 460.151 644.962 450.142C644.851 440.093 648.744 431.125 655.757 423.973C663.476 416.102 672.506 412.431 683.432 412.267Z"/>
	<path fill="#FDFDFD" d="M265.234 428.612C267.658 425.205 270.168 421.935 272.845 418.721C267.592 431.598 265.315 445.211 270.914 458.423C278.563 476.471 295.967 488.905 310.653 500.908C335.495 521.211 359.679 546.909 359.978 580.883C357.738 606.994 345.891 624.084 326.06 640.812C300.412 662.448 268.46 675.445 236.427 684.337C229.085 686.375 219.802 689.385 212.236 689.072C211.537 689.043 210.913 688.892 210.253 688.675L210.704 688.188Q212.052 687.558 213.346 686.822C246.193 668.137 282.052 630.253 292.311 593.473C295.968 579.374 295.337 561.442 289.684 547.93C286.881 536.463 280.447 524.439 273.557 514.941C262.65 499.908 255.059 493.299 252.782 473.774C252.886 465.59 253.828 458.039 255.651 450.059Q257.743 444.585 259.751 439.079Q262.356 433.774 265.234 428.612Z"/>
	<path fill="#1D87EC" d="M164.07 312.055C166.039 311.518 166.826 307.094 167.34 305.308C169.077 299.275 170.414 293.179 172.341 287.187C179.163 265.972 190.219 244.27 206.599 228.89Q207.346 234.854 207.84 240.844C210.155 258.834 214.827 276.28 219.437 293.782L221.387 296.085C224.53 296.966 227.803 293.625 231.001 292.934C231.191 292.893 231.382 292.859 231.573 292.822L231.845 292.307C235.997 293.309 240.129 295.097 244.133 296.584C257.554 301.567 270.26 306.89 280.476 317.279C285.213 322.096 288.758 327.639 292.845 332.973C302.605 345.715 315.917 346.924 330.943 346.385C336.936 353.522 341.09 356.517 350.431 358.331C347.65 367.246 340.111 373.09 332.106 377.243C320.758 383.131 306.598 385.848 293.956 387.138C308.618 388.409 323.853 385.39 337.283 379.542C331.507 384.843 325.79 389.108 318.734 392.573C299.927 401.81 284.208 402.614 265.816 415.962C263.206 417.856 259.936 420.032 257.808 422.457C250.113 429.037 241.99 437.779 238.315 447.385Q237.304 449.273 236.546 451.276Q235.788 453.28 235.295 455.364C235.643 455.221 236.056 455.184 236.339 454.937C237.801 453.657 239.316 450.756 240.49 449.117C244.741 443.183 248.993 437.305 254.717 432.669C258.154 429.886 260.766 428.14 265.234 428.612Q262.356 433.774 259.751 439.079Q257.743 444.585 255.651 450.059C253.828 458.039 252.886 465.59 252.782 473.774C255.059 493.299 262.65 499.908 273.557 514.941C280.447 524.439 286.881 536.463 289.684 547.93C295.337 561.442 295.968 579.374 292.311 593.473C282.052 630.253 246.193 668.137 213.346 686.822Q212.052 687.558 210.704 688.188C215.278 683.164 221.378 679.326 226.247 674.499C218.686 673.587 211.113 674.895 203.536 673.358L203.987 672.771C198.436 671.475 192.75 670.721 187.246 669.201C170.487 664.574 149.32 654.426 135.811 643.743C134.51 642.713 131.472 640.89 131.019 639.408C131.209 639.36 131.395 639.291 131.59 639.265C134.611 638.86 141.268 642.168 143.523 644.304C147.313 647.893 152.65 650.222 157.352 652.476C173.431 660.181 185.316 664.371 203.083 666.631C205.886 666.987 209.761 667.948 212.443 667.001L213.036 665.708Q207.96 665.679 202.907 665.198Q197.853 664.717 192.863 663.787Q187.873 662.858 182.985 661.488Q178.097 660.118 173.351 658.318C129.365 641.789 100.211 608.4 81.1474 566.628C62.875 519.393 60.9069 474.643 75.4918 425.994C81.2965 408.171 89.6335 391.433 99.3062 375.419C102.898 371.978 107.834 363.094 111.396 358.669C125.968 340.568 143.622 323.392 164.07 312.055Z"/>
	<path fill="#1A6BB8" d="M219.437 293.782L221.387 296.085C224.53 296.966 227.803 293.625 231.001 292.934C231.191 292.893 231.382 292.859 231.573 292.822C232.603 296.672 233.89 300.504 234.77 304.382C234.556 304.163 234.333 303.953 234.129 303.726C233.593 303.128 233.744 303.065 232.955 302.587C230.437 301.061 225.294 300.029 222.451 300.472C222.303 300.496 222.155 300.526 222.007 300.553L221.135 299.882L219.437 293.782Z"/>
	<path fill="#1978DF" d="M198.268 287.986C201.502 286.765 206.082 288.009 209.203 289.344C209.818 289.607 210.122 289.791 210.743 290.125L211.214 289.841L217.378 296.369C217.176 296.403 216.973 296.44 216.77 296.472C215.564 296.66 214.257 296.896 213.053 296.593C211.052 296.089 202.291 290.693 201.086 292.199C198.073 295.965 198.639 302.147 196.167 306.207Q196.077 303.266 195.934 300.328C195.911 296.233 197.216 291.91 198.268 287.986Z"/>
	<path fill="#1A6BB8" d="M235.295 455.364C235.643 455.221 236.056 455.184 236.339 454.937C237.801 453.657 239.316 450.756 240.49 449.117C244.741 443.183 248.993 437.305 254.717 432.669C258.154 429.886 260.766 428.14 265.234 428.612Q262.356 433.774 259.751 439.079L259.374 438.244C259.835 436.426 260.85 435.052 261.461 433.315C260.023 433.09 259.764 432.952 258.469 433.559C258.421 433.7 258.38 433.843 258.327 433.982C258.246 434.189 258.163 434.394 258.067 434.593C257.416 435.952 247.757 444.983 245.259 448.359C240.425 454.893 238.338 463.033 233.216 469.198L232.321 469.033C232.721 464.532 233.521 459.535 235.295 455.364Z"/>
	<path fill="#1978DF" d="M148.292 445.05C148.522 444.992 148.755 444.943 148.983 444.876C156.992 442.537 166.145 424.382 174.886 425.124C176.483 426.148 177.122 426.951 177.481 428.837C178.506 434.214 176.789 439.932 176.626 445.341C176.251 457.734 182.789 480.077 191.758 488.769C192.569 489.555 193.57 490.332 193.801 491.442L191.859 490.927C192.363 492.707 193.53 494.213 194.325 495.885C194.18 495.821 194.032 495.765 193.89 495.694C183.494 490.506 182.227 476.614 178.19 467.2C174.398 458.357 176.193 430.519 174.989 428.477C167.386 425.969 156.007 448.039 148.687 449.238C147.997 448.918 147.672 448.922 147.284 448.201C145.734 445.323 146.437 434.538 147.594 431.404C147.648 435.925 147.561 440.579 148.292 445.05Z"/>
	<path fill="#1A6BB8" d="M153.582 435.811C157.483 435.171 162.495 428.797 165.72 426.305C168.813 423.915 173.108 421.519 177.169 422.185C178.623 422.423 180.059 422.661 181.525 422.85C176.589 450.878 184.511 470.049 198.947 493.482C198.703 493.561 198.462 493.649 198.215 493.717C197.15 494.011 196.425 493.987 195.341 493.945L194.6 494.418L195.508 495.335L195.345 495.73L194.325 495.885C193.53 494.213 192.363 492.707 191.859 490.927L193.801 491.442C193.57 490.332 192.569 489.555 191.758 488.769C182.789 480.077 176.251 457.734 176.626 445.341C176.789 439.932 178.506 434.214 177.481 428.837C177.122 426.951 176.483 426.148 174.886 425.124C166.145 424.382 156.992 442.537 148.983 444.876C148.755 444.943 148.522 444.992 148.292 445.05C149.96 441.955 151.438 438.601 153.582 435.811Z"/>
	<path fill="#1A6BB8" d="M292.311 593.473Q291.663 592.289 291.033 591.096L290.912 591.301C288.829 585.596 289.936 577.961 289.613 571.895C289.29 565.809 287.888 560.001 285.752 554.302C282.242 544.932 277.491 534.73 271.754 526.514C265.166 517.08 257.232 508.586 252.376 498.026C248.889 490.443 246.935 479.806 248.88 471.629C249.698 468.189 251.302 464.951 252.12 461.529C252.896 458.282 252.821 455.038 254.036 451.863C254.522 450.595 254.446 450.606 255.651 450.059C253.828 458.039 252.886 465.59 252.782 473.774C255.059 493.299 262.65 499.908 273.557 514.941C280.447 524.439 286.881 536.463 289.684 547.93C295.337 561.442 295.968 579.374 292.311 593.473Z"/>
	<path fill="#085298" d="M289.684 547.93C289.639 547.921 289.591 547.922 289.55 547.903C289.545 547.901 288.634 547.411 288.622 547.397C287.782 546.424 286.903 543.335 286.264 541.986C283.639 536.437 280.931 530.279 277.578 525.162C276.611 523.687 276.456 523.125 274.686 522.768L275.443 523.259L275.059 523.294C275.562 523.98 275.99 524.499 276.165 525.347C277.044 529.607 281.774 531.581 281.418 536.164C279.06 533.636 274.086 524.823 271.878 521.474C267.603 514.992 262.908 508.815 258.497 502.431C253.278 494.878 249.812 487.223 251.562 477.874L251.741 480.143C252.44 478.169 252.326 475.862 252.782 473.774C255.059 493.299 262.65 499.908 273.557 514.941C280.447 524.439 286.881 536.463 289.684 547.93Z"/>
	<path fill="#FDFDFD" d="M195.459 312.077C192.192 303.382 191.039 295.475 191.65 286.183C192.382 275.035 198.379 247.877 207.104 240.237L207.84 240.844C210.155 258.834 214.827 276.28 219.437 293.782L221.135 299.882C219.644 299.42 218.396 297.545 217.378 296.369L211.214 289.841L210.743 290.125C210.122 289.791 209.818 289.607 209.203 289.344C206.082 288.009 201.502 286.765 198.268 287.986C197.216 291.91 195.911 296.233 195.934 300.328C195.278 304.122 195.501 308.222 195.459 312.077Z"/>
	<path fill="#085298" d="M202.584 278.473C205.407 282.295 208.167 286.194 211.214 289.841L210.743 290.125C210.122 289.791 209.818 289.607 209.203 289.344C206.082 288.009 201.502 286.765 198.268 287.986C199.686 284.817 201.029 281.576 202.584 278.473Z"/>
	<path fill="#1A6BB8" d="M112.946 562.574C106.159 548.365 100.356 534.291 96.1533 519.092C95.2403 515.791 94.0417 512.38 93.7075 508.969L95.1225 508.516L94.2651 508.191C98.2505 520.264 102.22 531.805 108.645 542.903C126.839 574.328 163.526 604.991 195.716 621.187Q199.978 623.295 204.342 625.184L208.431 626.764C220.339 630.994 233.211 634.284 245.852 631.313C249.573 630.347 252.601 628.591 255.83 626.586C259.742 622.348 261.789 618.4 263.736 613.032C264.926 616.371 263.944 622.002 262.498 625.155C260.286 629.98 256.489 632.772 251.937 635.207C251.225 636.229 249.346 636.788 248.223 637.191C230.859 643.42 207.562 634.173 192.038 626.511C184.802 622.939 177.475 618.381 170.848 613.772C161.45 607.235 127.142 580.485 123.806 570.671C126.766 573.296 129.347 576.294 132.271 578.95C136.438 582.735 140.702 586.059 144.536 590.206C146.043 591.836 148.215 593.861 150.536 593.984C150.869 592.547 149.097 591.29 148.097 590.434C130.313 575.207 114.06 557.33 103.838 536.083C102.539 533.383 100.413 530.118 100.081 527.149C99.9621 526.086 99.9474 525.509 99.3704 524.558L98.7833 524.762L98.6888 524.26L98.5012 524.929C100.247 529.005 101.489 533.58 103.022 537.739C103.491 539.011 104.306 540.006 104.652 541.349C105.978 546.492 109.376 550.567 110.862 555.549C111.119 556.41 111.356 557.111 111.79 557.904C112.767 559.691 113.178 560.464 112.946 562.574Z"/>
	<path fill="#085298" d="M204.342 625.184L208.431 626.764C220.339 630.994 233.211 634.284 245.852 631.313C249.573 630.347 252.601 628.591 255.83 626.586C255.425 628.529 254.458 629.587 252.847 630.682C251.264 631.756 249.428 632.506 247.686 633.283C240.955 636.391 232.435 635.493 225.21 635.431C223.053 635.216 220.688 634.521 218.596 633.925C215.009 632.904 205.363 628.876 203.642 625.818L204.342 625.184Z"/>
	<path fill="#FDFDFD" d="M231.573 292.822L231.845 292.307C235.997 293.309 240.129 295.097 244.133 296.584C257.554 301.567 270.26 306.89 280.476 317.279C285.213 322.096 288.758 327.639 292.845 332.973C302.605 345.715 315.917 346.924 330.943 346.385C336.936 353.522 341.09 356.517 350.431 358.331C347.65 367.246 340.111 373.09 332.106 377.243C320.758 383.131 306.598 385.848 293.956 387.138C308.618 388.409 323.853 385.39 337.283 379.542C331.507 384.843 325.79 389.108 318.734 392.573C299.927 401.81 284.208 402.614 265.816 415.962C263.206 417.856 259.936 420.032 257.808 422.457C250.113 429.037 241.99 437.779 238.315 447.385Q237.304 449.273 236.546 451.276Q235.788 453.28 235.295 455.364C233.521 459.535 232.721 464.532 232.321 469.033C231.423 472.655 231.781 476.859 231.895 480.57C230.648 477.998 229.484 474.706 227.88 472.38L226.936 472.562C224.06 470.178 222.854 459.626 216.358 457.999C214.439 458.481 214.376 458.952 213.39 460.599C210.219 465.898 208.288 472.071 204.644 477L203.5 476.704L202.945 475.894C203.149 475.482 203.336 475.009 203.602 474.635L202.626 473.446L203.953 473.448L203.146 473.381C201.572 475.269 201.949 478.12 200.221 480.323L199.805 479.626C198.752 484.054 199.446 488.951 198.947 493.482C184.511 470.049 176.589 450.878 181.525 422.85C180.059 422.661 178.623 422.423 177.169 422.185C173.108 421.519 168.813 423.915 165.72 426.305C162.495 428.797 157.483 435.171 153.582 435.811C151.438 438.601 149.96 441.955 148.292 445.05C147.561 440.579 147.648 435.925 147.594 431.404C148.431 429.355 148.344 425.971 148.645 423.693C150.679 408.312 159.325 396.253 171.314 387.039C165.416 385.73 153.736 384.254 148.789 381.379C147.205 380.459 146.867 379.462 146.429 377.816C144.108 377.063 140.573 377.194 138.068 376.973C146.899 373.178 156.555 371.219 165.559 367.726C191.857 357.523 222.683 338.045 236.766 313.09Q235.867 308.713 234.77 304.382C233.89 300.504 232.603 296.672 231.573 292.822Z"/>
	<path fill="#085298" d="M153.582 435.811C160.264 424.533 172.979 416.856 184.505 411.395C183.346 415.187 182.398 418.983 181.525 422.85C180.059 422.661 178.623 422.423 177.169 422.185C173.108 421.519 168.813 423.915 165.72 426.305C162.495 428.797 157.483 435.171 153.582 435.811Z"/>
	<path fill="#085298" d="M146.429 377.816C160.175 378.721 174.037 379.027 187.725 377.071C182.355 380.444 176.478 383.407 171.314 387.039C165.416 385.73 153.736 384.254 148.789 381.379C147.205 380.459 146.867 379.462 146.429 377.816Z"/>
	<defs>
		<linearGradient id="gradient_1" gradientUnits="userSpaceOnUse" x1="216.34695" y1="464.59732" x2="213.09709" y2="446.37439">
			<stop offset="0" stop-color="#0F72D2"/>
			<stop offset="1" stop-color="#004C99"/>
		</linearGradient>
	</defs>
	<path fill="url(#gradient_1)" d="M205.079 462.26C209.032 455.347 213.495 448.537 218.706 442.49C220.937 452.879 223.884 462.524 227.88 472.38L226.936 472.562C224.06 470.178 222.854 459.626 216.358 457.999C214.439 458.481 214.376 458.952 213.39 460.599C210.219 465.898 208.288 472.071 204.644 477L203.5 476.704L202.945 475.894C203.149 475.482 203.336 475.009 203.602 474.635L202.626 473.446L203.953 473.448L203.146 473.381C201.572 475.269 201.949 478.12 200.221 480.323L199.805 479.626C200.146 473.554 202.576 467.715 205.079 462.26Z"/>
	<path fill="#1A6BB8" d="M205.079 462.26C206.261 462.191 207.444 462.106 208.628 462.07C206.925 466.861 205.569 472.103 203.5 476.704L202.945 475.894C203.149 475.482 203.336 475.009 203.602 474.635L202.626 473.446L203.953 473.448L203.146 473.381C201.572 475.269 201.949 478.12 200.221 480.323L199.805 479.626C200.146 473.554 202.576 467.715 205.079 462.26Z"/>
	<path fill="#085298" d="M261.907 333.204C264.608 333.022 267.478 332.848 270.161 333.311C278.985 334.836 283.984 342.719 288.535 349.587C282.932 351.091 277.787 351.54 272.046 350.514C261.649 347.496 253.994 340.309 244.466 335.679C250.274 334.337 255.982 333.718 261.907 333.204Z"/>
	<path fill="#FDFDFD" d="M262.394 335.7C266.237 335.589 270.292 336.363 273.425 338.773C274.245 339.403 274.4 339.497 274.556 340.54C274.453 340.663 274.367 340.803 274.247 340.909C272.481 342.478 268.331 342.074 266.062 342.081C261.645 341.076 256.89 338.886 253.093 336.442L262.394 335.7Z"/>
	<path fill="#FDFDFD" d="M164.07 312.055C164.345 313.794 163.997 314.519 162.963 315.944C156.062 325.458 147.374 334.029 140.09 343.338C117.285 372.483 96.4031 411.75 101.928 449.816C104.966 470.745 116.276 486.489 131.437 500.475C119.142 479.174 111.96 458.537 113.725 433.615C116.47 444.469 118.159 455.28 122.056 465.858C137.013 506.455 172.724 527.303 205.949 551.272C206.344 550.894 206.037 551.142 207.051 550.839C207.597 551.384 208.075 551.811 208.701 552.272C208.099 550.549 206.955 549.113 206.331 547.399C205.009 543.772 204.438 540.12 202.844 536.524C200.491 531.214 197.441 525.996 195.45 520.557C194.987 519.291 194.525 518.368 194.867 517.052C195.779 521.531 199.628 523.556 201.19 527.468C201.287 527.713 201.374 527.961 201.467 528.208L201.412 527.652C200.554 519.734 199.765 517.628 195.919 510.698C195.11 509.238 195.368 508.94 195.789 507.38C194.814 505.439 193.863 503.509 192.715 501.663C199.745 506.282 206.599 511.138 213.814 515.473C221.173 519.894 228.766 523.959 235.707 529.037C251.627 540.685 260.373 557.888 264.272 576.923C266.752 589.036 266.906 601.045 263.736 613.032C261.789 618.4 259.742 622.348 255.83 626.586C252.601 628.591 249.573 630.347 245.852 631.313C233.211 634.284 220.339 630.994 208.431 626.764L204.342 625.184Q199.978 623.295 195.716 621.187C163.526 604.991 126.839 574.328 108.645 542.903C102.22 531.805 98.2505 520.264 94.2651 508.191L95.1225 508.516L93.7075 508.969C94.0417 512.38 95.2403 515.791 96.1533 519.092C100.356 534.291 106.159 548.365 112.946 562.574C130.307 597.894 155.596 628.566 188.237 650.77C191.554 653.026 194.959 655.272 198.492 657.176C202.268 659.21 211.715 662.425 214.489 665.252C213.995 665.445 213.567 665.649 213.036 665.708Q207.96 665.679 202.907 665.198Q197.853 664.717 192.863 663.787Q187.873 662.858 182.985 661.488Q178.097 660.118 173.351 658.318C129.365 641.789 100.211 608.4 81.1474 566.628C62.875 519.393 60.9069 474.643 75.4918 425.994C81.2965 408.171 89.6335 391.433 99.3062 375.419C102.898 371.978 107.834 363.094 111.396 358.669C125.968 340.568 143.622 323.392 164.07 312.055Z"/>
	<path fill="#1A6BB8" d="M195.789 507.38C205.429 526.008 214.017 544.377 218.643 564.953C214.766 560 210.604 555.5 205.949 551.272C206.344 550.894 206.037 551.142 207.051 550.839C207.597 551.384 208.075 551.811 208.701 552.272C208.099 550.549 206.955 549.113 206.331 547.399C205.009 543.772 204.438 540.12 202.844 536.524C200.491 531.214 197.441 525.996 195.45 520.557C194.987 519.291 194.525 518.368 194.867 517.052C195.779 521.531 199.628 523.556 201.19 527.468C201.287 527.713 201.374 527.961 201.467 528.208L201.412 527.652C200.554 519.734 199.765 517.628 195.919 510.698C195.11 509.238 195.368 508.94 195.789 507.38Z"/>
</svg>
